<svg width="200" height="51" viewBox="0 0 200 51" fill="none" xmlns="http://www.w3.org/2000/svg">
<g clip-path="url(#clip0_114_1082)">
<path d="M150.556 34.4951C147.647 34.4951 145.41 33.9775 143.844 32.9422C143.09 32.4626 142.46 31.8101 142.008 31.0389C141.556 30.2676 141.295 29.3997 141.245 28.5071H145.956C146.345 30.1719 147.871 31.001 150.523 31.001C152.852 31.001 154.017 30.4351 154.017 29.3033C154.014 29.0507 153.941 28.8039 153.806 28.5902C153.672 28.3765 153.48 28.2043 153.254 28.0925C152.445 27.6959 151.579 27.4273 150.688 27.2963L147.443 26.7436C143.772 26.1163 141.936 24.5019 141.936 21.9005C141.912 21.104 142.101 20.3156 142.483 19.6161C142.864 18.9165 143.425 18.331 144.107 17.9195C145.805 16.9106 147.76 16.4168 149.733 16.4982C152.365 16.4982 154.392 16.9982 155.807 17.9853C156.478 18.4275 157.047 19.0089 157.474 19.6902C157.901 20.3714 158.176 21.1364 158.281 21.9334H153.504C153.181 20.6174 151.925 19.9923 149.733 19.9923C147.654 19.9923 146.621 20.5384 146.621 21.6242C146.61 21.8636 146.674 22.1003 146.804 22.3019C146.934 22.5034 147.123 22.6598 147.345 22.7494C148.127 23.0529 148.938 23.2735 149.766 23.4074L153.089 23.9601C156.827 24.6313 158.696 26.3861 158.696 29.2243C158.73 30.029 158.535 30.8269 158.135 31.5257C157.734 32.2244 157.144 32.7954 156.432 33.1725C154.623 34.1216 152.597 34.5777 150.556 34.4951Z" fill="#0F0F33"/>
<path d="M179.141 16.8732L170.837 23.4534L179.141 34.1858H173.568L167.343 26.2237L164.395 28.54V34.1858H159.624V9.57568H164.395V23.006H164.711L172.771 16.8732H179.141Z" fill="#0F0F33"/>
<path d="M184.076 41.4176C183.049 41.4061 182.027 41.278 181.029 41.036L180.997 37.5089C181.647 37.6374 182.308 37.7056 182.971 37.7129C185.024 37.7129 186.43 36.9299 187.189 35.3638L187.814 34.153H186.254L178.193 16.8733H183.385L189.13 29.5403H189.439L194.841 16.8733H200L191.689 36.0876C191.448 36.6429 191.177 37.1853 190.88 37.7129C190.515 38.2945 190.096 38.8409 189.63 39.3448C189.005 40.0356 188.221 40.5641 187.346 40.8846C186.298 41.2585 185.189 41.4391 184.076 41.4176V41.4176Z" fill="#0F0F33"/>
<path d="M6.88281 34.1529V16.8732H11.2389L11.6535 19.0513H11.9693C12.7537 18.2027 13.7147 17.5366 14.7846 17.1C15.8545 16.6634 17.0072 16.4669 18.1614 16.5244C20.7189 16.5244 22.7324 17.211 24.202 18.5841C25.6716 19.9571 26.4042 21.8676 26.3998 24.3155V34.1858H21.5897V25.4275C21.6339 24.7769 21.5394 24.1242 21.3126 23.5128C21.0857 22.9014 20.7316 22.3451 20.2736 21.8808C19.2883 21.0423 18.0188 20.6136 16.7269 20.6832C15.383 20.6216 14.0652 21.0679 13.0353 21.9334C12.5485 22.4051 12.1707 22.9776 11.9286 23.6108C11.6864 24.2439 11.5858 24.9224 11.6338 25.5986V34.1529H6.88281Z" fill="#0F0F33"/>
<path d="M33.2044 34.153L25.1436 16.8733H30.2696L35.9154 29.3758H36.2247L41.7982 16.8733H46.9176L38.8897 34.1793L33.2044 34.153Z" fill="#0F0F33"/>
<path d="M60.5383 28.5467H65.2432C65.0612 29.4479 64.691 30.3005 64.157 31.0489C63.6229 31.7973 62.9369 32.4245 62.1439 32.8896C60.1897 34.0305 57.9496 34.5876 55.6886 34.4952C52.5082 34.4952 49.9529 33.688 48.0226 32.0737C47.0803 31.294 46.3296 30.3082 45.8288 29.1924C45.3279 28.0765 45.0902 26.8605 45.1339 25.6382C45.0864 24.3835 45.3226 23.1342 45.8251 21.9834C46.3275 20.8327 47.0832 19.8102 48.0358 18.9922C50.0966 17.2821 52.7166 16.3939 55.3925 16.4982C57.8995 16.4124 60.3584 17.201 62.3478 18.729C64.2232 20.2227 65.1444 22.4271 65.1971 25.3618C65.1945 25.8484 65.1593 26.3342 65.0918 26.8161H49.9572C50.0251 27.3881 50.2146 27.9389 50.5131 28.4315C50.8117 28.9241 51.2122 29.347 51.6878 29.6719C52.895 30.434 54.3092 30.802 55.7347 30.7247C58.3492 30.7247 59.9504 29.9987 60.5383 28.5467ZM55.3991 20.2753C54.1273 20.2159 52.8655 20.5268 51.7668 21.1702C51.3335 21.4281 50.9553 21.769 50.6538 22.1732C50.3524 22.5774 50.1335 23.0371 50.0099 23.526H60.4856C60.421 23.0415 60.2493 22.5776 59.983 22.1678C59.7166 21.7581 59.3623 21.4128 58.9459 21.1571C57.8769 20.5186 56.6426 20.2118 55.3991 20.2753V20.2753Z" fill="#0F0F33"/>
<path d="M74.9693 34.4953C72.0608 34.4953 69.8213 33.9776 68.2508 32.9423C67.4972 32.4624 66.8689 31.8097 66.418 31.0384C65.9672 30.2671 65.7067 29.3994 65.6582 28.5073H70.3631C70.7579 30.1742 72.2801 31.0056 74.9298 31.0012C77.2592 31.0012 78.4305 30.4353 78.4305 29.3035C78.4255 29.0488 78.3496 28.8005 78.2113 28.5866C78.073 28.3727 77.8777 28.2016 77.6474 28.0927C76.8404 27.6967 75.9769 27.4281 75.0877 27.2965L71.7976 26.7437C68.1346 26.1164 66.3009 24.5021 66.2965 21.9007C66.2743 21.1014 66.4664 20.3107 66.8529 19.6107C67.2393 18.9106 67.8061 18.3268 68.4943 17.9196C70.192 16.91 72.1469 16.4162 74.1204 16.4983C76.7525 16.4983 78.7726 16.9984 80.194 17.9854C80.8644 18.4286 81.4322 19.0103 81.859 19.6913C82.2858 20.3724 82.5617 21.137 82.6681 21.9336H77.8909C77.5685 20.6175 76.3116 19.9924 74.1204 19.9924C72.041 19.9924 71.0014 20.5364 71.0014 21.6243C70.9903 21.8647 71.0548 22.1025 71.1858 22.3043C71.3168 22.5061 71.5077 22.6618 71.7318 22.7495C72.5131 23.0548 73.3249 23.2754 74.1533 23.4076L77.4434 23.9603C81.181 24.6315 83.0498 26.3862 83.0498 29.2245C83.0825 30.0297 82.8866 30.8278 82.4849 31.5264C82.0832 32.2251 81.492 32.7958 80.7796 33.1726C78.9911 34.1122 76.9882 34.5681 74.9693 34.4953V34.4953Z" fill="#0F0F33"/>
<path d="M92.9726 34.4951C90.902 34.4951 89.3973 34.006 88.4585 33.0277C87.4977 31.9769 86.9935 30.5876 87.0569 29.1651V20.6108H82.7666V16.8732H84.4577C85.2698 16.9426 86.0788 16.7082 86.7279 16.2152C86.971 15.9341 87.1547 15.6067 87.2678 15.2528C87.3809 14.8988 87.4211 14.5255 87.3859 14.1556V11.9644H91.821V16.8732H97.0852V20.6437H91.821V28.336C91.8162 28.6139 91.8383 28.8915 91.8868 29.1651C91.9471 29.4287 92.0517 29.6801 92.1961 29.9087C92.3894 30.1992 92.6779 30.4133 93.012 30.5141C93.4637 30.6643 93.9378 30.7356 94.4136 30.7246C95.0787 30.7177 95.7409 30.6361 96.3877 30.4812V34.1135C95.2684 34.3751 94.122 34.5032 92.9726 34.4951V34.4951Z" fill="#0F0F33"/>
<path d="M0.466797 34.153V16.8733H5.2638V34.1793L0.466797 34.153Z" fill="#0F0F33"/>
<path d="M2.85583 14.8201C4.43306 14.8201 5.71165 13.5415 5.71165 11.9642C5.71165 10.387 4.43306 9.1084 2.85583 9.1084C1.2786 9.1084 0 10.387 0 11.9642C0 13.5415 1.2786 14.8201 2.85583 14.8201Z" fill="#0F0F33"/>
<path d="M116.109 0.646364L125.874 10.4114C125.946 10.4824 126.003 10.567 126.042 10.6602C126.081 10.7534 126.101 10.8533 126.101 10.9543C126.101 11.0553 126.081 11.1553 126.042 11.2485C126.003 11.3417 125.946 11.4262 125.874 11.4972L116.53 20.8214C115.823 21.5073 115.401 22.4352 115.35 23.419C115.299 24.4027 115.622 25.3694 116.254 26.1251C116.614 26.5402 117.06 26.8727 117.561 27.0998C118.062 27.3269 118.606 27.4434 119.155 27.4411V27.4411C119.246 27.4403 119.334 27.4696 119.406 27.5244C119.478 27.5792 119.53 27.6564 119.553 27.7438C119.576 27.8312 119.57 27.9238 119.535 28.0072C119.5 28.0906 119.438 28.16 119.359 28.2044C117.128 29.4596 114.542 29.9359 112.01 29.5582C109.478 29.1805 107.144 27.9702 105.376 26.1185C103.31 23.8965 102.191 20.9566 102.258 17.9231C102.324 14.8896 103.57 12.0014 105.732 9.87187L115.023 0.646364C115.168 0.504489 115.363 0.425049 115.566 0.425049C115.769 0.425049 115.964 0.504489 116.109 0.646364Z" fill="#0F0F33"/>
<path d="M122.229 50.347L112.464 40.5621C112.322 40.417 112.242 40.2222 112.242 40.0193C112.242 39.8163 112.322 39.6215 112.464 39.4764L121.814 30.1324C122.512 29.4399 122.927 28.5117 122.977 27.5295C123.027 26.5474 122.708 25.5819 122.084 24.8222C121.723 24.4077 121.277 24.0757 120.776 23.8486C120.275 23.6216 119.732 23.5048 119.182 23.5061V23.5061C119.091 23.5069 119.003 23.4776 118.931 23.4228C118.859 23.3681 118.808 23.2909 118.784 23.2035C118.761 23.1161 118.767 23.0234 118.802 22.94C118.837 22.8566 118.899 22.7873 118.978 22.7428C121.206 21.5006 123.784 21.0321 126.307 21.4107C128.83 21.7893 131.156 22.9937 132.921 24.8353C134.986 27.0581 136.104 29.9977 136.038 33.0307C135.971 36.0637 134.726 38.9516 132.566 41.082L123.314 50.347C123.243 50.4188 123.159 50.4758 123.066 50.5147C122.972 50.5536 122.872 50.5737 122.771 50.5737C122.67 50.5737 122.57 50.5536 122.477 50.5147C122.384 50.4758 122.3 50.4188 122.229 50.347V50.347Z" fill="#0F0F33"/>
</g>
<defs>
<clipPath id="clip0_114_1082">
<rect width="200" height="50.1546" fill="white" transform="translate(0 0.422607)"/>
</clipPath>
</defs>
</svg>
